<svg xmlns="http://www.w3.org/2000/svg" viewBox="0 0 800 500" width="800" height="500"><rect x="0" y="0" width="800" height="500" fill="white"/><line x1="60.00" y1="30.00" x2="60.00" y2="460.00" stroke="#e6e6e6" stroke-width="1"/><line x1="60.00" y1="460.00" x2="780.00" y2="460.00" stroke="#e6e6e6" stroke-width="1"/><text x="60.00" y="478" text-anchor="middle" font-size="12" fill="#555">-0.314</text><text x="54" y="460.00" text-anchor="end" dominant-baseline="middle" font-size="12" fill="#555">-1.2</text><line x1="204.00" y1="30.00" x2="204.00" y2="460.00" stroke="#e6e6e6" stroke-width="1"/><line x1="60.00" y1="374.00" x2="780.00" y2="374.00" stroke="#e6e6e6" stroke-width="1"/><text x="204.00" y="478" text-anchor="middle" font-size="12" fill="#555">1.068</text><text x="54" y="374.00" text-anchor="end" dominant-baseline="middle" font-size="12" fill="#555">-0.72</text><line x1="348.00" y1="30.00" x2="348.00" y2="460.00" stroke="#e6e6e6" stroke-width="1"/><line x1="60.00" y1="288.00" x2="780.00" y2="288.00" stroke="#e6e6e6" stroke-width="1"/><text x="348.00" y="478" text-anchor="middle" font-size="12" fill="#555">2.449</text><text x="54" y="288.00" text-anchor="end" dominant-baseline="middle" font-size="12" fill="#555">-0.24</text><line x1="492.00" y1="30.00" x2="492.00" y2="460.00" stroke="#e6e6e6" stroke-width="1"/><line x1="60.00" y1="202.00" x2="780.00" y2="202.00" stroke="#e6e6e6" stroke-width="1"/><text x="492.00" y="478" text-anchor="middle" font-size="12" fill="#555">3.831</text><text x="54" y="202.00" text-anchor="end" dominant-baseline="middle" font-size="12" fill="#555">0.24</text><line x1="636.00" y1="30.00" x2="636.00" y2="460.00" stroke="#e6e6e6" stroke-width="1"/><line x1="60.00" y1="116.00" x2="780.00" y2="116.00" stroke="#e6e6e6" stroke-width="1"/><text x="636.00" y="478" text-anchor="middle" font-size="12" fill="#555">5.212</text><text x="54" y="116.00" text-anchor="end" dominant-baseline="middle" font-size="12" fill="#555">0.72</text><line x1="780.00" y1="30.00" x2="780.00" y2="460.00" stroke="#e6e6e6" stroke-width="1"/><line x1="60.00" y1="30.00" x2="780.00" y2="30.00" stroke="#e6e6e6" stroke-width="1"/><text x="780.00" y="478" text-anchor="middle" font-size="12" fill="#555">6.594</text><text x="54" y="30.00" text-anchor="end" dominant-baseline="middle" font-size="12" fill="#555">1.2</text><line x1="60.00" y1="245.00" x2="780.00" y2="245.00" stroke="#888" stroke-width="1.5"/><line x1="92.73" y1="30.00" x2="92.73" y2="460.00" stroke="#888" stroke-width="1.5"/><text x="400" y="20" text-anchor="middle" font-size="16" font-family="monospace" fill="#222">sin(x)</text><polyline points="92.73,245.00 94.04,242.75 95.35,240.49 96.66,238.24 97.97,235.99 99.29,233.73 100.60,231.48 101.91,229.24 103.22,226.99 104.53,224.75 105.84,222.51 107.16,220.28 108.47,218.05 109.78,215.82 111.09,213.60 112.40,211.38 113.71,209.17 115.03,206.96 116.34,204.76 117.65,202.57 118.96,200.38 120.27,198.20 121.58,196.03 122.90,193.86 124.21,191.70 125.52,189.55 126.83,187.42 128.14,185.28 129.46,183.16 130.77,181.05 132.08,178.95 133.39,176.86 134.70,174.78 136.01,172.71 137.33,170.65 138.64,168.61 139.95,166.57 141.26,164.55 142.57,162.55 143.88,160.55 145.20,158.57 146.51,156.60 147.82,154.65 149.13,152.71 150.44,150.78 151.75,148.87 153.07,146.97 154.38,145.10 155.69,143.23 157.00,141.38 158.31,139.55 159.62,137.74 160.94,135.94 162.25,134.16 163.56,132.40 164.87,130.65 166.18,128.93 167.49,127.22 168.81,125.53 170.12,123.86 171.43,122.20 172.74,120.57 174.05,118.96 175.37,117.37 176.68,115.80 177.99,114.24 179.30,112.71 180.61,111.20 181.92,109.71 183.24,108.25 184.55,106.80 185.86,105.38 187.17,103.97 188.48,102.59 189.79,101.24 191.11,99.90 192.42,98.59 193.73,97.30 195.04,96.04 196.35,94.80 197.66,93.58 198.98,92.39 200.29,91.22 201.60,90.07 202.91,88.95 204.22,87.86 205.53,86.79 206.85,85.74 208.16,84.72 209.47,83.73 210.78,82.76 212.09,81.81 213.40,80.89 214.72,80.00 216.03,79.14 217.34,78.30 218.65,77.48 219.96,76.70 221.28,75.94 222.59,75.20 223.90,74.50 225.21,73.82 226.52,73.17 227.83,72.54 229.15,71.94 230.46,71.37 231.77,70.83 233.08,70.32 234.39,69.83 235.70,69.37 237.02,68.94 238.33,68.53 239.64,68.16 240.95,67.81 242.26,67.49 243.57,67.20 244.89,66.93 246.20,66.70 247.51,66.49 248.82,66.31 250.13,66.16 251.44,66.04 252.76,65.95 254.07,65.88 255.38,65.84 256.69,65.83 258.00,65.85 259.31,65.90 260.63,65.98 261.94,66.08 263.25,66.21 264.56,66.38 265.87,66.57 267.19,66.78 268.50,67.03 269.81,67.30 271.12,67.61 272.43,67.94 273.74,68.29 275.06,68.68 276.37,69.10 277.68,69.54 278.99,70.01 280.30,70.51 281.61,71.03 282.93,71.58 284.24,72.16 285.55,72.77 286.86,73.41 288.17,74.07 289.48,74.76 290.80,75.48 292.11,76.22 293.42,76.99 294.73,77.78 296.04,78.61 297.35,79.46 298.67,80.33 299.98,81.23 301.29,82.16 302.60,83.12 303.91,84.09 305.22,85.10 306.54,86.13 307.85,87.18 309.16,88.26 310.47,89.37 311.78,90.50 313.10,91.65 314.41,92.83 315.72,94.03 317.03,95.26 318.34,96.51 319.65,97.78 320.97,99.08 322.28,100.40 323.59,101.74 324.90,103.11 326.21,104.49 327.52,105.90 328.84,107.34 330.15,108.79 331.46,110.27 332.77,111.76 334.08,113.28 335.39,114.82 336.71,116.38 338.02,117.96 339.33,119.56 340.64,121.18 341.95,122.82 343.26,124.48 344.58,126.16 345.89,127.85 347.20,129.57 348.51,131.30 349.82,133.05 351.13,134.82 352.45,136.61 353.76,138.41 355.07,140.23 356.38,142.07 357.69,143.93 359.01,145.80 360.32,147.68 361.63,149.58 362.94,151.50 364.25,153.43 365.56,155.37 366.88,157.33 368.19,159.31 369.50,161.29 370.81,163.29 372.12,165.31 373.43,167.33 374.75,169.37 376.06,171.42 377.37,173.48 378.68,175.56 379.99,177.64 381.30,179.73 382.62,181.84 383.93,183.95 385.24,186.08 386.55,188.21 387.86,190.36 389.17,192.51 390.49,194.67 391.80,196.84 393.11,199.01 394.42,201.19 395.73,203.38 397.04,205.58 398.36,207.78 399.67,209.99 400.98,212.21 402.29,214.43 403.60,216.65 404.92,218.88 406.23,221.11 407.54,223.35 408.85,225.59 410.16,227.83 411.47,230.08 412.79,232.32 414.10,234.57 415.41,236.83 416.72,239.08 418.03,241.33 419.34,243.59 420.66,245.84 421.97,248.10 423.28,250.35 424.59,252.61 425.90,254.86 427.21,257.11 428.53,259.36 429.84,261.60 431.15,263.85 432.46,266.09 433.77,268.33 435.08,270.56 436.40,272.79 437.71,275.01 439.02,277.23 440.33,279.45 441.64,281.66 442.96,283.86 444.27,286.06 445.58,288.25 446.89,290.44 448.20,292.62 449.51,294.79 450.83,296.95 452.14,299.10 453.45,301.25 454.76,303.38 456.07,305.51 457.38,307.63 458.70,309.74 460.01,311.83 461.32,313.92 462.63,316.00 463.94,318.06 465.25,320.11 466.57,322.15 467.88,324.18 469.19,326.20 470.50,328.20 471.81,330.19 473.12,332.17 474.44,334.13 475.75,336.08 477.06,338.02 478.37,339.94 479.68,341.84 480.99,343.73 482.31,345.60 483.62,347.46 484.93,349.30 486.24,351.13 487.55,352.94 488.87,354.73 490.18,356.50 491.49,358.26 492.80,360.00 494.11,361.72 495.42,363.42 496.74,365.10 498.05,366.76 499.36,368.41 500.67,370.03 501.98,371.64 503.29,373.22 504.61,374.79 505.92,376.33 507.23,377.86 508.54,379.36 509.85,380.84 511.16,382.30 512.48,383.74 513.79,385.15 515.10,386.55 516.41,387.92 517.72,389.27 519.03,390.59 520.35,391.89 521.66,393.17 522.97,394.43 524.28,395.66 525.59,396.87 526.90,398.05 528.22,399.21 529.53,400.35 530.84,401.46 532.15,402.55 533.46,403.61 534.78,404.65 536.09,405.66 537.40,406.64 538.71,407.60 540.02,408.54 541.33,409.44 542.65,410.33 543.96,411.18 545.27,412.01 546.58,412.82 547.89,413.59 549.20,414.34 550.52,415.06 551.83,415.76 553.14,416.43 554.45,417.07 555.76,417.69 557.07,418.27 558.39,418.83 559.70,419.37 561.01,419.87 562.32,420.35 563.63,420.80 564.94,421.22 566.26,421.61 567.57,421.98 568.88,422.32 570.19,422.63 571.50,422.91 572.81,423.16 574.13,423.38 575.44,423.58 576.75,423.75 578.06,423.89 579.37,424.00 580.69,424.08 582.00,424.14 583.31,424.17 584.62,424.16 585.93,424.13 587.24,424.08 588.56,423.99 589.87,423.87 591.18,423.73 592.49,423.56 593.80,423.36 595.11,423.13 596.43,422.87 597.74,422.59 599.05,422.28 600.36,421.94 601.67,421.57 602.98,421.17 604.30,420.74 605.61,420.29 606.92,419.81 608.23,419.30 609.54,418.77 610.85,418.20 612.17,417.61 613.48,417.00 614.79,416.35 616.10,415.68 617.41,414.98 618.72,414.25 620.04,413.50 621.35,412.72 622.66,411.91 623.97,411.08 625.28,410.22 626.60,409.34 627.91,408.42 629.22,407.49 630.53,406.52 631.84,405.54 633.15,404.52 634.47,403.48 635.78,402.42 637.09,401.33 638.40,400.22 639.71,399.08 641.02,397.91 642.34,396.73 643.65,395.52 644.96,394.28 646.27,393.02 647.58,391.74 648.89,390.43 650.21,389.11 651.52,387.75 652.83,386.38 654.14,384.98 655.45,383.57 656.76,382.12 658.08,380.66 659.39,379.18 660.70,377.67 662.01,376.15 663.32,374.60 664.63,373.03 665.95,371.45 667.26,369.84 668.57,368.21 669.88,366.57 671.19,364.90 672.51,363.21 673.82,361.51 675.13,359.79 676.44,358.05 677.75,356.29 679.06,354.51 680.38,352.72 681.69,350.91 683.00,349.08 684.31,347.24 685.62,345.38 686.93,343.50 688.25,341.61 689.56,339.71 690.87,337.79 692.18,335.85 693.49,333.90 694.80,331.93 696.12,329.96 697.43,327.96 698.74,325.96 700.05,323.94 701.36,321.91 702.67,319.87 703.99,317.81 705.30,315.75 706.61,313.67 707.92,311.58 709.23,309.48 710.54,307.37 711.86,305.26 713.17,303.13 714.48,300.99 715.79,298.84 717.10,296.69 718.42,294.53 719.73,292.35 721.04,290.18 722.35,287.99 723.66,285.80 724.97,283.60 726.29,281.39 727.60,279.18 728.91,276.97 730.22,274.75 731.53,272.52 732.84,270.29 734.16,268.06 735.47,265.82 736.78,263.58 738.09,261.33 739.40,259.09 740.71,256.84 742.03,254.59 743.34,252.33 744.65,250.08 745.96,247.83 747.27,245.57" fill="none" stroke="#2563eb" stroke-width="2"/></svg>